<svg xmlns="http://www.w3.org/2000/svg" viewBox="0 0 2005 420"><path d="M990.8 297.8c11.6 11.9 26.5 17.9 48.4 17.9 46.1 0 92.6-39.7 92.6-112.2 0-64.6-43.1-95.9-81.8-95.9-37.3 0-51.9 21.3-59.1 31.8v-16.7c0-4-3.4-11.1-11.2-11.1h-48.1v267.9c0 7.5 6.1 11.2 11.1 11.2h48.1v-92.9zm0-109.3c3.5-10 15.8-32.7 42.2-32.7 16.5 0 39.2 6.3 39.2 49.1 0 46.9-27.3 64.5-50 64.5-17.2 0-27.4-7.3-31.4-10.8v-70.1zm267.4-32.7c-28.3 0-43.7 21.2-43.7 56.8 0 35.5 15 56.8 43.7 56.8 28.6 0 43.7-20.7 43.7-56.8s-15.4-56.8-43.7-56.8m103.1 55.4c0 61.6-40.3 104.3-102.7 104.3-62.4 0-102.7-43.6-102.7-104.3 0-60.7 40.1-104.3 102.7-104.3 62.6.1 102.7 42.7 102.7 104.3zm127-55.6c-28.3 0-43.7 21.2-43.7 56.8 0 35.5 15 56.8 43.7 56.8 28.6 0 43.7-20.7 43.7-56.8-.1-36-15.4-56.8-43.7-56.8m103.1 55.4c0 61.6-40.3 104.3-102.7 104.3-62.4 0-102.7-43.6-102.7-104.3 0-60.7 40.1-104.3 102.7-104.3 62.6.1 102.7 42.8 102.7 104.3zm-998 104.1c72 0 98.7-56.7 71.2-59-7.5-.6-14 12.3-54.1 12.3-42.1 0-59.4-21.3-62-37.6h111.9c14.4 0 22.4-12.8 24.4-20.9 8.8-35.4-9.7-102.9-91.4-102.9-77.8 0-105.4 61.8-105.4 106.3 0 44.8 31.3 101.8 105.4 101.8m1.5-161.1c42.1 0 41.4 39.1 35.6 39.1h-82.3c.1-12 15.9-39.1 46.7-39.1zm126.2 92.9V111.5H818c40.4 0 72.8 20.5 72.8 55.9 0 23.2-14 34.4-22.8 38.8 9.9 3.5 32.1 15.4 32.1 45.2 0 38.5-32.6 59.3-76.1 59.3h-43.2c-32.7-.1-59.7-12.1-59.7-63.8m120.9 3.7c0-11.6-7.3-19.8-19.9-19.8h-41.7V250c0 8.5 6.2 18.8 18.2 18.8h25.2c8.2.1 18.2-7.2 18.2-18.2zm-6.9-76.8c.1-6.1-4.6-18.4-20.5-18.3h-34.3v37.6h34.3c11.7 0 20.6-7.1 20.5-19.3zm1047.2 126.6V155.5h-50.5c-6.2 0-11.1-5-11.1-10.5v-33.3H1992c4.3 0 11.1 3.2 11.1 11.2v32.7h-61.5v155.3h-48.1c-7.5-.1-11.1-6.5-11.2-10.5m-261.9-.4V111.7h118.2c32.6 0 59.7 12 59.7 63.7v135.4H1750c-4.9 0-11.1-3.8-11.1-10.9V174.3c-.1-8.7-6.8-18.8-18.9-18.8h-40.7v155.3h-47.7c-7.8 0-11.2-6.7-11.2-10.8" fill="#95c11f"/><g fill-rule="evenodd" clip-rule="evenodd"><path d="M417.9 210c0 114.5-92.8 207.4-207.4 207.4C96 417.4 3.1 324.5 3.1 210S96 2.6 210.5 2.6c114.6 0 207.4 92.9 207.4 207.4" fill="#95c11f"/><path d="M258.9 251.7c-51 0-71.8-39.6-66.1-48.1 3.5-5.3 24.6 4.5 52 4.5 57.7 0 53.4-68.1.7-68.1-54.4 0-83.1 39.3-83.1 79.4 0 59.3 57.9 95.9 123.7 78.8 1.2-.3 5.8-1.1 8 2.9 2.3 4.2-.3 8.3-3.3 10.7-32.2 25.9-71.9 34.8-104.9 34.8C26.1 346.6 13.6 73.5 229 73.5c150.5-.1 171.8 178.2 29.9 178.2" fill="#383b40"/></g></svg>