<svg width="320" height="80" fill="none" xmlns="http://www.w3.org/2000/svg"><path d="M246.3 62.04v4.355c0 3.265-.542 6.258-1.897 8.163h-1.355V80h2.168v-3.265h8.941V80h2.168v-5.442h-1.626V62.04H246.3zm2.167 1.906h4.065v10.612h-5.69c1.083-1.905 1.625-4.626 1.625-7.347v-3.265zm-8.941 5.17c0 2.449 0 3.81-1.084 4.898-.542.544-1.355.816-2.168.816-.813 0-1.625-.272-2.167-.816-.813-.817-.813-2.177-.813-3.81v-1.36c0-1.905 0-3.266.813-4.082.542-.544 1.354-.816 2.167-.816.813 0 1.626.272 2.168.816.813.816 1.084 2.177 1.084 4.354zm2.167-.817c0-2.177-.27-3.81-1.354-4.898-1.084-1.088-2.439-1.632-4.065-1.632-1.354 0-2.709.544-3.793 1.632-1.355 1.089-1.355 2.721-1.355 5.17v1.089c0 2.177 0 4.082 1.355 5.714 1.084.817 2.439 1.36 3.793 1.36a6.64 6.64 0 004.065-1.36c1.354-1.632 1.354-3.537 1.354-5.986v-1.089zm-15.173-1.904c0 1.632-.813 2.449-2.439 2.449h-3.251v-4.898h3.251c1.626 0 2.439.816 2.439 2.449zm2.439 0c0-2.721-1.897-4.354-4.878-4.354h-5.419v14.694h2.168V71.02h3.251c2.981 0 4.878-1.904 4.878-4.625zm-15.987 2.72c0 2.45 0 3.81-.813 4.899-.542.544-1.355.816-2.167.816-.813 0-1.626-.272-2.168-.816-.813-.817-.813-2.177-.813-3.81v-1.36c0-1.905 0-3.266.813-4.082.542-.544 1.355-.816 2.168-.816.812 0 1.625.272 2.167.816.813.816.813 2.177.813 4.354zm2.439-.816c0-2.177-.542-3.81-1.626-4.898-.813-1.088-2.168-1.632-3.793-1.632-1.626 0-2.981.544-3.794 1.632-1.355 1.089-1.626 2.721-1.626 5.17v1.089c0 2.177 0 4.082 1.626 5.714.813.817 2.168 1.36 3.794 1.36 1.625 0 2.98-.543 3.793-1.36 1.355-1.632 1.626-3.537 1.626-5.986v-1.089zm-12.193-4.353V62.04h-8.942v14.694h2.168v-12.79h6.774zm-17.884 12.789V62.04h-2.167l-6.503 10.612V62.041h-2.168v14.694h1.897l6.774-10.885v10.885h2.167zm-2.167-18.504h-1.626c-.271 1.089-.813 1.36-1.626 1.36s-1.354-.271-1.625-1.36h-1.626c.271 2.177 1.626 2.721 3.251 2.721 1.626 0 2.981-.544 3.252-2.72zM164.471 72.11c0 1.633-1.084 2.449-2.71 2.449h-3.251V69.66h3.251c1.626 0 2.71 1.088 2.71 2.449zm2.167 0c0-2.45-1.896-4.354-4.606-4.354h-3.522v-5.714h-2.168v14.694h5.69c2.71 0 4.606-1.905 4.606-4.626zm4.065 4.626V62.04h-2.168v14.694h2.168zm-20.051-4.354c0 1.36-.813 2.177-2.439 2.177h-3.251v-4.354h3.251c1.626 0 2.439.816 2.439 2.177zm0-6.258c0 1.36-1.084 2.176-2.439 2.176h-3.251v-4.353h3.251c1.355 0 2.439.816 2.439 2.177zm2.439 6.53c0-1.905-.813-2.721-2.168-3.537 1.084-.545 1.897-1.633 1.897-3.266 0-2.449-1.897-3.81-4.607-3.81h-5.69v14.695h5.961c2.71 0 4.607-1.633 4.607-4.082zm-15.987-3.537c0 2.449 0 3.81-.813 4.898-.542.544-1.355.816-2.438.816-.813 0-1.355-.272-2.168-.816-.813-.817-.813-2.177-.813-3.81v-1.36c0-1.905 0-3.266.813-4.082.813-.544 1.355-.816 2.168-.816 1.083 0 1.625.272 2.438.816.813.816.813 2.177.813 4.354zm2.168-.817c0-2.177-.271-3.81-1.355-4.898-1.084-1.088-2.439-1.632-4.064-1.632-1.355 0-2.71.544-3.794 1.632-1.084 1.089-1.355 2.721-1.355 5.17v1.089c0 2.177 0 4.082 1.355 5.714 1.084.817 2.439 1.36 3.794 1.36 1.625 0 2.98-.543 4.064-1.36 1.355-1.632 1.355-3.537 1.355-5.986V68.3zm-11.922-4.353V62.04h-9.213v14.694h2.439v-12.79h6.774zm-14.09 2.449c0 1.632-1.084 2.449-2.71 2.449h-3.251v-4.898h3.251c1.626 0 2.71.816 2.71 2.449zm2.168 0c0-2.721-1.897-4.354-4.607-4.354h-5.69v14.694h2.168V71.02h3.522c2.71 0 4.607-1.904 4.607-4.625zm-15.716 2.72c0 2.45 0 3.81-1.084 4.899-.542.544-1.084.816-2.167.816-.813 0-1.626-.272-2.168-.816-.813-.817-.813-2.177-.813-3.81v-1.36c0-1.905 0-3.266.813-4.082.542-.544 1.355-.816 2.168-.816.813 0 1.625.272 2.167.816.813.816 1.084 2.177 1.084 4.354zm2.168-.816c0-2.177-.271-3.81-1.355-4.898-1.084-1.088-2.439-1.632-4.064-1.632-1.355 0-2.71.544-3.794 1.632-1.355 1.089-1.355 2.721-1.355 5.17v1.089c0 2.177 0 4.082 1.355 5.714 1.084.817 2.439 1.36 3.794 1.36 1.625 0 2.98-.543 4.064-1.36 1.355-1.632 1.355-3.537 1.355-5.986V68.3zm-12.193-4.353V62.04H79.39v1.905h4.065v12.789h2.167v-12.79h4.065zm201.863-36.19h-1.626v11.972c-1.355.544-2.981.816-4.606.816-4.607 0-6.232-1.904-6.232-7.347v-4.081c0-.817-.542-1.36-1.355-1.36h-1.626v5.441c0 7.075 2.981 10.34 9.213 10.34 1.625 0 3.251-.272 4.606-.816v8.163h2.98V29.116c0-.817-.542-1.36-1.354-1.36zm26.824 0c-.542 0-1.084.271-1.355.543l-12.464 16.599V29.116c0-.817-.541-1.36-1.354-1.36h-1.626v23.128h1.626c.542 0 1.083-.272 1.354-.816l12.464-16.599v17.415H320V27.755h-1.626zm-52.023.543l-12.464 16.599V29.116c0-.817-.542-1.36-1.355-1.36h-1.626v23.128h1.626c.542 0 .813-.272 1.355-.816l12.193-16.599v17.415h3.251V27.755h-1.626c-.542 0-1.083.272-1.354.544zm-30.077 8.98h-7.315v-6.53h6.773c1.626 0 3.523.816 3.523 3.265 0 2.993-2.439 3.265-2.981 3.265zm.813 10.612h-8.128v-7.619h6.773c2.439 0 5.149.816 5.149 3.538v.544c0 2.449-1.355 3.537-3.794 3.537zm3.523-9.524c1.083-1.088 1.625-2.72 1.625-4.353 0-3.81-2.709-6.259-6.503-6.259h-8.67c-.813 0-1.355.544-1.355 1.36v21.77h11.38c4.065 0 6.774-2.45 6.774-6.531v-.544c0-2.177-1.084-4.082-3.251-5.443zm-24.386.817c0 5.17-4.065 9.251-9.213 9.251-4.877 0-8.942-4.081-8.942-9.251 0-4.898 4.065-9.252 8.942-9.252 5.148 0 9.213 4.354 9.213 9.252zm-9.213-12.245c-1.897 0-3.793.544-5.69 1.36-2.168 1.089-4.064 2.994-5.148 5.17-1.897 4.082-1.626 8.708.813 12.245 2.167 3.538 5.961 5.715 10.025 5.715 1.897 0 4.064-.545 5.69-1.361 2.439-1.088 4.335-2.721 5.148-5.17 2.168-4.082 1.897-8.435-.542-12.245-2.167-3.537-5.961-5.714-10.296-5.714zm-19.238.816h-1.626v9.796h-12.464v-8.435c0-.817-.542-1.36-1.354-1.36h-1.626v23.128h2.98v-10.34h12.464v10.34h2.981V29.116c0-.817-.542-1.36-1.355-1.36zm-50.94 20.136h-13.006l6.232-15.238 6.774 15.238zm-5.148-19.32c-.271-.544-.813-.816-1.355-.816h-1.355l-8.399 20.136h-1.897v8.436h2.981v-5.443h17.612v5.443h2.98V47.89h-2.167l-8.4-19.32zm27.367 12.517h-7.316l3.522-8.435 3.794 8.435zm-3.523-13.333h-1.355l-9.754 23.13h3.251l2.71-6.531h10.025l2.981 6.53h3.251l-9.754-22.313c-.271-.544-.813-.816-1.355-.816zm-40.372 0h-3.794c-.271 0-.813 0-1.084.272L99.17 38.912l12.735 11.428c.271.272.813.544 1.084.544h4.064l-13.277-11.972 11.381-11.157zM95.919 38.64L85.08 28.3c-.27-.544-.812-.544-1.354-.544h-3.523l11.38 11.157-13.547 11.972H82.1c.542 0 .813-.272 1.084-.544l12.735-11.156v11.7h2.98v-23.13h-2.98V38.64zM23.302 1.088C22.49.544 21.677 0 20.864 0H0l43.353 38.912L0 77.823h20.864c.813 0 1.625-.272 2.438-1.088l42.27-37.823-42.27-37.824z" fill="#A82682"/></svg>