<svg width="439" height="60" xmlns="http://www.w3.org/2000/svg"><g fill="none" fill-rule="evenodd"><path d="M131.978 59H0c12.063-12.766 21.134-21.464 27.211-26.095 20.701-15.776 39.33-23.713 49.461-27.13 21.892-7.383 53.597-10.48 66.747 8.134 8.766 12.41 4.952 27.44-11.441 45.091z" fill="#AF0C0C"/><path d="M173.07 59l2.346-11.04h13.455c2.07 0 2.553-.69 2.829-2.07l.828-3.795c.276-1.38-.276-2.07-1.656-2.07h-8.28l2.277-10.695h7.245c2.07 0 2.553-.69 2.829-2.07l.759-3.45c.276-1.38-.276-2.07-1.656-2.07h-10.695l-1.863-2.415 1.794-8.625h15.732c6.21 0 10.212 4.623 8.901 10.833l-.759 3.519c-1.794 8.28-8.142 9.108-8.142 9.108l-.138.69s6.693 1.173 4.899 9.453l-.966 4.554C201.36 55.757 197.358 59 190.458 59H173.07zm36.12 0l10.212-48.3h25.875l-1.794 8.625-2.967 2.415h-11.73l-1.587 7.59h9.315l-2.346 11.04h-9.315l-1.587 7.59h14.145L235.065 59H209.19zm34.74 0l10.212-48.3h17.457c6.21 0 10.212 4.623 8.901 10.833l-2.898 13.524c-1.449 6.9-5.451 10.143-12.351 10.143h-6.693L255.66 59h-11.73zm16.974-24.84h2.76c2.07 0 2.553-.69 2.829-2.07l1.794-8.28c.276-1.38-.276-2.07-1.656-2.07h-3.105l-2.622 12.42zM281.775 59l10.212-48.3h11.73l-3.795 17.94h1.725l9.315-17.94h11.04l-1.173 5.52-10.281 17.595 3.105 19.665L312.48 59h-10.419l-1.656-18.285h-3.036L293.505 59h-11.73zm38.775 0l1.035-5.175L339.387 10.7h15.87l-.552 43.125L353.67 59h-11.109l.759-8.625h-8.28L332.211 59H320.55zm18.009-18.63h5.52l1.38-17.94h-.69l-6.21 17.94zm20.973 19.32l2.346-11.385h1.725c1.725 0 3.312-1.38 3.795-3.105l10.074-34.5h25.53L392.79 59h-11.73l7.866-37.26h-3.45l-7.452 25.737c-2.691 9.315-6.003 12.213-13.938 12.213h-4.554zm43.159-10.833l6.072-28.704c1.449-6.9 5.451-10.143 12.351-10.143h8.28c6.21 0 10.212 4.623 8.901 10.833l-6.072 28.704c-1.449 6.9-5.451 10.143-12.351 10.143h-8.28c-6.21 0-10.212-4.623-8.901-10.833zm13.869-.207h1.725c2.07 0 2.553-.69 2.829-2.07l4.968-23.46c.276-1.38-.276-2.07-1.656-2.07h-1.725c-2.07 0-2.553.69-2.829 2.07l-4.968 23.46c-.276 1.38.276 2.07 1.656 2.07z" fill="#4A4A4A" fill-rule="nonzero"/></g></svg>