<svg height="512" viewBox="0 0 96 96" width="512" xmlns="http://www.w3.org/2000/svg"><path d="M17 34a1 1 0 00-1-1H8a1 1 0 00-1 1v8a1 1 0 001 1h8a1 1 0 001-1zm-2 7H9v-6h6zm15-7a1 1 0 00-1-1h-8a1 1 0 00-1 1v8a1 1 0 001 1h8a1 1 0 001-1zm-2 7h-6v-6h6zm-11 6a1 1 0 00-1-1H8a1 1 0 00-1 1v8a1 1 0 001 1h8a1 1 0 001-1zm-2 7H9v-6h6zm15-7a1 1 0 00-1-1h-8a1 1 0 00-1 1v8a1 1 0 001 1h8a1 1 0 001-1zm-2 7h-6v-6h6zm-12 5H8a1 1 0 00-1 1v8a1 1 0 001 1h8a1 1 0 001-1v-8a1 1 0 00-1-1zm-1 8H9v-6h6zm14-8h-8a1 1 0 00-1 1v8a1 1 0 001 1h8a1 1 0 001-1v-8a1 1 0 00-1-1zm-1 8h-6v-6h6zM47 7h-8a1 1 0 00-1 1v8a1 1 0 001 1h8a1 1 0 001-1V8a1 1 0 00-1-1zm-1 8h-6V9h6zm6 2h8a1 1 0 001-1V8a1 1 0 00-1-1h-8a1 1 0 00-1 1v8a1 1 0 001 1zm1-8h6v6h-6zm12 8h8a1 1 0 001-1V8a1 1 0 00-1-1h-8a1 1 0 00-1 1v8a1 1 0 001 1zm1-8h6v6h-6zM47 20h-8a1 1 0 00-1 1v8a1 1 0 001 1h8a1 1 0 001-1v-8a1 1 0 00-1-1zm-1 8h-6v-6h6zm6 2h8a1 1 0 001-1v-8a1 1 0 00-1-1h-8a1 1 0 00-1 1v8a1 1 0 001 1zm1-8h6v6h-6zm12 8h8a1 1 0 001-1v-8a1 1 0 00-1-1h-8a1 1 0 00-1 1v8a1 1 0 001 1zm1-8h6v6h-6zM47 33h-8a1 1 0 00-1 1v8a1 1 0 001 1h8a1 1 0 001-1v-8a1 1 0 00-1-1zm-1 8h-6v-6h6zm6 2h8a1 1 0 001-1v-8a1 1 0 00-1-1h-8a1 1 0 00-1 1v8a1 1 0 001 1zm1-8h6v6h-6zm12 8h8a1 1 0 001-1v-8a1 1 0 00-1-1h-8a1 1 0 00-1 1v8a1 1 0 001 1zm1-8h6v6h-6zM47 46h-8a1 1 0 00-1 1v8a1 1 0 001 1h8a1 1 0 001-1v-8a1 1 0 00-1-1zm-1 8h-6v-6h6zm15 1v-8a1 1 0 00-1-1h-8a1 1 0 00-1 1v8a1 1 0 001 1h8a1 1 0 001-1zm-2-1h-6v-6h6zm6 2h8a1 1 0 001-1v-8a1 1 0 00-1-1h-8a1 1 0 00-1 1v8a1 1 0 001 1zm1-8h6v6h-6z"/><path d="M91 68h-8v-2c0-.879-.231-1.744-.669-2.5a.999.999 0 10-1.731 1.001c.261.453.4.972.4 1.499v2H69v-2c0-1.654 1.346-3 3-3h6a1 1 0 001-1V3a1 1 0 00-1-1H34a1 1 0 00-1 1v25H22a1 1 0 000 2h11v62H4V30h14a1 1 0 001-1v-9c0-.055-.023-.103-.031-.155 3.348-3.925 3.176-9.842-.534-13.552a.999.999 0 00-1.414 0L4.293 19.021a.999.999 0 000 1.414 9.965 9.965 0 007.071 2.924A9.985 9.985 0 0017 21.617V28H3a1 1 0 00-1 1v64a1 1 0 001 1h37a1 1 0 001-1V72h10v20h-7a1 1 0 000 2h47c1.654 0 3-1.346 3-3V71c0-1.654-1.346-3-3-3zM6.458 19.684L17.684 8.458c2.438 3.136 2.217 7.683-.663 10.563-2.879 2.88-7.428 3.1-10.563.663zM56.184 92H53V71a1 1 0 00-1-1H40a1 1 0 00-1 1v21h-4V4h42v57h-5c-2.757 0-5 2.243-5 5v2h-8c-1.654 0-3 1.346-3 3v20c0 .352.072.686.184 1zM59 92c-.551 0-1-.449-1-1v-2.899A5.016 5.016 0 0161.899 92zm33-1c0 .551-.449 1-1 1h-2.899A5.016 5.016 0 0192 88.101zm0-4.92A7.004 7.004 0 0086.08 92H63.92A7.004 7.004 0 0058 86.08V81h5v1a1 1 0 001 1h1v2a1 1 0 002 0v-2h1a1 1 0 001-1v-1h12v1a1 1 0 001 1h1v2a1 1 0 002 0v-2h1a1 1 0 001-1v-1h5zM65 81v-3h2v3zm18 0v-3h2v3zm9-2h-5v-2a1 1 0 00-1-1h-4a1 1 0 00-1 1v2H69v-2a1 1 0 00-1-1h-4a1 1 0 00-1 1v2h-5v-8c0-.551.449-1 1-1h32c.551 0 1 .449 1 1z"/><circle cx="42" cy="67" r="1"/><circle cx="46" cy="67" r="1"/><circle cx="50" cy="67" r="1"/></svg>