<svg height="512" viewBox="0 0 128 128" width="512" xmlns="http://www.w3.org/2000/svg" data-name="Layer 2"><path d="M59.2 100.6H22.882a7.332 7.332 0 100 3.5H59.2a7.332 7.332 0 100-3.5zm-43.43 5.582a3.832 3.832 0 113.831-3.832 3.836 3.836 0 01-3.83 3.837zm50.542-7.663a3.832 3.832 0 11-3.832 3.832 3.836 3.836 0 013.832-3.828z"/><path d="M126.25 9.88H67.69a1.813 1.813 0 00-1.26.52L52.02 24.81a1.8 1.8 0 00-.52 1.26v11.55H41.04a1.752 1.752 0 00-1.4.7L29.62 51.6H8.08a1.746 1.746 0 00-1.75 1.75v22.42a1.752 1.752 0 001.75 1.75h15.69v9.06h-8a15.77 15.77 0 100 31.54h50.54a15.77 15.77 0 100-31.54h-7.99v-9.06H74a1.752 1.752 0 001.75-1.75V39.38A1.754 1.754 0 0074 37.62h-9v-6.7l7.55-7.54h41.95v57.66H98.58v-.79a7.757 7.757 0 00-7.75-7.75h-.33a1.746 1.746 0 00-1.75 1.75v8.54a1.854 1.854 0 00.24.89l10 17a1.767 1.767 0 001.51.86h25.75a1.746 1.746 0 001.75-1.75V11.62a1.743 1.743 0 00-1.75-1.74zM55 28.67l6.5 2.7v6.25H55zm11.31 61.41a12.27 12.27 0 110 24.54h-6.8v-4.45a1.75 1.75 0 00-3.5 0v4.45h-4.86v-4.45a1.75 1.75 0 00-3.5 0v4.45h-4.86v-4.45a1.75 1.75 0 00-3.5 0v4.45h-4.86v-4.45a1.75 1.75 0 00-3.5 0v4.45h-4.86v-4.45a1.75 1.75 0 10-3.5 0v4.45h-6.8a12.27 12.27 0 110-24.54h8v4.01a1.75 1.75 0 003.5 0v-4.01h4.26v4.01a1.75 1.75 0 103.5 0v-4.01h4.26v4.01a1.75 1.75 0 003.5 0v-4.01h4.26v4.01a1.75 1.75 0 003.5 0v-4.01h4.27v4.01a1.75 1.75 0 003.5 0v-4.01zm-39.04-3.5v-9.06h27.55v9.06zm44.98-22.94H47.36V51.5h24.89zm0-22.52V48H45.61a1.752 1.752 0 00-1.75 1.75v15.64a1.752 1.752 0 001.75 1.75h26.64v6.88H9.83V66.7h22.6a1.75 1.75 0 000-3.5H9.83v-8.1h20.66a1.772 1.772 0 001.4-.69l10.02-13.29zm-9.41-12.99l-6.5-2.69 10.72-10.73 2.7 6.5zm10.15-8.25l-2.69-6.5h44.2v6.5zm19.26 56.36a4.259 4.259 0 012.83 4.01v.79h-2.83zm32.25 21.8h-23l-2.94-5h11.27a1.75 1.75 0 000-3.5H96.5l-2.94-5h30.94zm0-17H118V23.38h6.5zm0-61.16H118v-6.5h6.5z"/></svg>