<svg height="512pt" viewBox="-31 0 511 512" width="512pt" xmlns="http://www.w3.org/2000/svg"><path d="M448.77 418.11v-27.485c0-33.82-17.047-57.777-51.977-72.809-21.531-9.265-33.332-8.878-116.902-25.87V268.94c25.062-16.898 38.082-40.941 40.687-67.32 12.563-.512 22.621-10.89 22.621-23.57v-17.832c0-.188-.004-.375-.008-.563 8.262-3.277 14.121-11.347 14.121-20.765 0-11.239-8.351-20.567-19.171-22.102v-7.894C338.14 48.754 289.387 0 229.242 0h-9.215c-60.14 0-108.894 48.754-108.894 108.895v7.894c-10.824 1.535-19.172 10.863-19.172 22.102 0 9.418 5.855 17.488 14.117 20.765-.004.188-.004.375-.004.563v17.832c0 12.68 10.059 23.058 22.617 23.57 2.602 26.324 15.496 50.332 40.688 67.317v23.007C85.695 308.961 74.03 308.543 52.48 317.816 17.547 332.848.5 356.805.5 390.621v87.442C.5 496.808 15.695 512 34.438 512h380.398c18.742 0 33.937-15.191 33.937-33.934v-29.949c0-9.918-15.003-9.933-15.003 0v29.95c0 10.453-8.477 18.93-18.934 18.93h-37.418c-2.027-53.364 5.863-75.356-10.984-105.15-13.543-23.952-7.723-43.44-9.122-69.562 3.008 1.399 76.458 6.594 76.458 68.336v27.488c0 9.918 15 9.934 15 0zM298.39 310.823c-27.757 40.352-27.117 40.172-31.835 43.516-3.446 2.437-6.899 3.793-11.356 1.12l-15.164-9.093c13.43-7.707 33.278-21.707 38.54-39.394zM86.814 447.547h70.64l-.004 19.504H86.83zm.03 34.508h73.86c6.477 0 11.746-5.27 11.746-11.746-.855-22.7 2.254-28.637-3.43-34.325-6.039-6.039-7.195-2.296-82.214-3.441a70.515 70.515 0 019.097-33.313c16.215-28.68 9.48-52.125 11.063-79.863l27.867-5.422c5.781 8.489 46.926 68.196 66.95 96.778 10.042 14.336 15.35 31.168 15.355 48.675v37.598H86.855zM209.235 346.37l-15.164 9.09c-6.46 3.879-13.382-1.399-17.636-7.563a23669.555 23669.555 0 01-25.551-37.074l19.816-3.851c5.258 17.687 25.11 31.687 38.535 39.398zm15.403 75.008a100.035 100.035 0 00-10.57-19.266 8065.635 8065.635 0 01-21.262-30.547c7.918-1.199 10.722-4.836 31.832-16.937 20.996 12.039 23.937 15.742 31.832 16.937a7611.137 7611.137 0 01-21.266 30.547 100.017 100.017 0 00-10.566 19.266zm48.976-395.215a94.475 94.475 0 0110.922 6.887v12.308c-2.86.762-8.062.762-10.922 0zm-43.515-11.156v53.36c-2.864.76-8.063.76-10.922 0v-53.36c.719-.008 10.183-.008 10.922 0zm-65.36 18.043a94.426 94.426 0 0110.918-6.887V45.36c-2.86.762-8.058.762-10.918 0zm-15.004 13.664v1.344c0 17.328 40.926 17.363 40.926 0V19.707a92.822 92.822 0 0113.512-3.363v54.722c0 17.211 40.93 17.422 40.93 0V16.344a92.646 92.646 0 0113.507 3.363v28.352c0 17.328 40.93 17.363 40.93 0v-1.344c27.879 31.48 23.047 66.55 23.598 69.851h-197c.558-3.34-4.399-38.242 23.597-69.851zm-6.48 147.265c-.207-9.675-12.191-7.003-13.59-7.34-4.734 0-8.586-3.855-8.586-8.59V161.22h31.953c9.918 0 9.93-15.004 0-15.004h-38.746c-4.039 0-7.32-3.285-7.32-7.324a7.327 7.327 0 017.32-7.32h220.703c4.04 0 7.32 3.284 7.32 7.32 0 4.039-3.28 7.324-7.32 7.324H183.035c-9.918 0-9.93 15.004 0 15.004h145.16v16.832c0 4.734-3.851 8.59-8.59 8.59-1.546.37-13.378-2.305-13.585 7.34-.989 46.074-39.864 76.57-81.383 77.07-41.399-.5-80.395-30.883-81.383-77.07zm81.297 92.075h.168c14.25-.16 27.68-3.086 40.168-8.727v20.8c0 8.118-7.309 17.903-20.586 27.556-7.688 5.586-15.5 9.78-19.664 11.87-4.168-2.09-11.98-6.284-19.668-11.87-13.274-9.653-20.586-19.438-20.586-27.555v-20.8c12.488 5.64 25.922 8.566 40.168 8.726zM15.504 478.066v-87.441c0-32.746 18.504-52.844 59.988-65.137l16.469-3.203c-1.398 26.168 4.418 45.621-9.121 69.563-16.88 29.851-8.961 51.906-10.988 105.148H34.438c-10.442 0-18.934-8.492-18.934-18.93zm346.937-11.015H291.79v-19.504h70.668zm-9.07-67.82a70.515 70.515 0 019.098 33.312h-73.934c-6.476 0-11.746 5.27-11.746 11.746v26.016c0 6.476 5.27 11.75 11.746 11.75h73.895l-.016 14.941H232.137v-37.598c0-17.503 5.312-34.34 15.355-48.675 19.778-28.235 61.438-88.688 66.95-96.774l27.867 5.418c1.593 27.899-5.157 51.184 11.062 79.863zm0 0"/></svg>