<svg height="511pt" viewBox="-58 0 511 511.998" width="511pt" xmlns="http://www.w3.org/2000/svg"><path d="M63.938 468.125V377.73c0-9.918-15-9.93-15 0v90.395c0 9.914 15 9.93 15 0zm246.085-334v243.75c0 9.914 15 9.93 15 0v-243.75c0-9.914-15-9.93-15 0zm0 0"/><path d="M94.574 275.79H82.125V103.57l10.41-29.28c.461-1.29.559-2.68.281-4.02L80.527 10.508C79.277 4.422 73.855 0 67.641 0H45.234C39.02 0 33.598 4.422 32.348 10.508L20.058 70.27a7.452 7.452 0 00.282 4.02l10.41 29.28v172.22H18.3c-9.816 0-17.8 7.983-17.8 17.8v8.02c0 9.816 7.984 17.8 17.8 17.8h3.833a57.34 57.34 0 01-5.844 19.043 72.41 72.41 0 00-7.926 32.871v34.75c0 9.914 14.996 9.93 14.996 0v-34.75a57.35 57.35 0 016.282-26.035 72.485 72.485 0 007.582-25.883h38.43c.882 9 3.46 17.832 7.581 25.883a57.346 57.346 0 016.282 26.031v108.7c0 9.363-7.618 16.98-16.98 16.98H40.34c-9.363 0-16.98-7.617-16.98-16.98v-43.95c0-9.918-14.997-9.93-14.997 0v43.95c0 17.632 14.344 31.976 31.977 31.976h32.195c17.633 0 31.977-14.344 31.977-31.976V371.324a72.41 72.41 0 00-7.926-32.87 57.34 57.34 0 01-5.844-19.044h3.832c9.817 0 17.801-7.984 17.801-17.8v-8.02c0-9.817-7.984-17.8-17.8-17.8zM46.734 15h19.407l11.562 56.238-8.375 23.551H43.547l-8.375-23.55zm-.984 94.785h21.375V275.79H45.75zM97.379 301.61a2.807 2.807 0 01-2.805 2.801H18.301a2.807 2.807 0 01-2.805-2.8v-8.02a2.807 2.807 0 012.805-2.805h76.273a2.807 2.807 0 012.805 2.805zm254.949 22.222V270.5a7.499 7.499 0 10-14.996 0v53.332c0 26.586 9.648 52.02 27.164 71.617a62.851 62.851 0 0116.008 41.95c0 21.968-11.3 42.078-29.785 53.535V443.78c0-10.886-8.86-19.746-19.746-19.746h-26.895c-10.89 0-19.746 8.86-19.746 19.746v47.153c-18.484-11.457-29.785-31.567-29.785-53.536a62.851 62.851 0 0116.008-41.949c17.515-19.597 27.164-45.031 27.164-71.617V188.168c0-26.586-9.649-52.02-27.164-71.617a62.851 62.851 0 01-16.008-41.95c0-21.968 11.3-42.078 29.785-53.535V68.22c0 10.886 8.856 19.746 19.746 19.746h26.895c10.886 0 19.746-8.86 19.746-19.746V21.066c18.484 11.457 29.785 31.567 29.785 53.536a62.851 62.851 0 01-16.008 41.949c-17.516 19.597-27.164 45.031-27.164 71.617V241.5c0 4.145 3.356 7.5 7.496 7.5a7.5 7.5 0 007.5-7.5v-53.332c0-22.895 8.293-44.777 23.352-61.621a77.844 77.844 0 0019.82-51.945c0-29.133-16.05-55.625-41.887-69.137-8.14-4.254-17.894 1.637-17.894 10.82V68.22a4.755 4.755 0 01-4.746 4.75h-26.895a4.758 4.758 0 01-4.75-4.75V16.285c0-9.18-9.746-15.082-17.894-10.82-25.836 13.512-41.887 40.004-41.887 69.137a77.845 77.845 0 0019.82 51.945c15.059 16.844 23.352 38.726 23.352 61.621v135.664c0 22.895-8.293 44.777-23.352 61.621a77.844 77.844 0 00-19.82 51.945c0 29.133 16.05 55.625 41.887 69.137 3.824 2 8.312 1.863 12.007-.375 3.688-2.23 5.887-6.137 5.887-10.445V443.78a4.755 4.755 0 014.75-4.746h26.895a4.751 4.751 0 014.746 4.746v51.934c0 9.183 9.75 15.078 17.894 10.82 25.836-13.512 41.89-40.004 41.89-69.137a77.848 77.848 0 00-19.823-51.945c-15.059-16.844-23.352-38.726-23.352-61.621zm0 0"/></svg>