<svg xmlns="http://www.w3.org/2000/svg" xmlns:xlink="http://www.w3.org/1999/xlink"><symbol id="Arrow 4" viewBox="0 0 17 12">
<path d="M16.5303 6.53033C16.8232 6.23744 16.8232 5.76256 16.5303 5.46967L11.7574 0.696699C11.4645 0.403806 10.9896 0.403806 10.6967 0.696699C10.4038 0.989593 10.4038 1.46447 10.6967 1.75736L14.9393 6L10.6967 10.2426C10.4038 10.5355 10.4038 11.0104 10.6967 11.3033C10.9896 11.5962 11.4645 11.5962 11.7574 11.3033L16.5303 6.53033ZM0 6.75H16V5.25H0V6.75Z" fill="#FBA500"/>
</symbol><symbol id="arrow"><path fill-rule="evenodd" clip-rule="evenodd" d="M34.728.263l21.787 15.962c.647.647.647 1.51 0 1.941L34.728 34.344c-.647.432-1.725 0-1.725-1.078v-6.903H1.294C.647 26.363 0 25.932 0 25.07V9.539c0-.864.647-1.51 1.294-1.51h31.709V1.125c0-.863 1.078-1.51 1.725-.863zm1.942 5.824l14.883 11.217-14.883 11v-5.608H3.667v-11H36.67v-5.61z" fill="#255D7D"/></symbol><symbol id="instagram" viewBox="0 0 31 31">
<path fill-rule="evenodd" clip-rule="evenodd" d="M7.39435 15.1554C7.39435 10.8776 10.8776 7.39435 15.1554 7.39435C19.4331 7.39435 22.9164 10.8776 22.9164 15.1554C22.9164 19.4331 19.4331 22.9164 15.1554 22.9164C10.8776 22.9164 7.39435 19.4331 7.39435 15.1554ZM23.1608 0H7.14991C3.23885 0 0 3.23885 0 7.14991V23.1608C0 27.0719 3.23885 30.3107 7.14991 30.3107H23.1608C27.133 30.3107 30.3107 27.0719 30.3107 23.1608V7.14991C30.3107 3.23885 27.133 0 23.1608 0ZM24.7497 4.03328C23.8941 4.03328 23.1608 4.76661 23.1608 5.62215C23.1608 6.4777 23.8941 7.21102 24.7497 7.21102C25.6052 7.21102 26.3385 6.4777 26.3385 5.62215C26.3385 4.76661 25.6052 4.03328 24.7497 4.03328Z" fill="white"/>
</symbol><symbol id="manager"><path d="M0 106.764c0 .593.238 1.162.663 1.581.424.419 1 .655 1.6.655h100.474c.6 0 1.176-.236 1.6-.655a2.22 2.22 0 00.663-1.581c0-31.113-27.568-40.247-34.72-42.125l-1.246-11.314a23.332 23.332 0 003.27-7.468c1.925-1.308 3.056-4.37 3.905-7.367 1.245-4.349 1.132-7.189-.305-8.944a4.093 4.093 0 00-.94-.827c.068-.28.125-.559.193-.872 1.347-7.982.566-13.852-2.264-17.451a8.736 8.736 0 00-4.266-2.985 16.284 16.284 0 00-5.523-4.763A20.052 20.052 0 0051.04.11c-1.672.082-3.325.39-4.911.917a21.08 21.08 0 00-5.218 2.616 26.845 26.845 0 00-5.262 4.293 21.182 21.182 0 00-5.829 10.062 21.598 21.598 0 000 9.849c.053.283.11.563.17.838-.335.22-.636.488-.894.794-1.471 1.733-1.573 4.584-.317 8.944.793 2.828 1.924 6.003 3.882 7.356a23.74 23.74 0 003.305 7.658l-1.245 11.18C27.602 66.484 0 75.64 0 106.764zm46.92-44.428a16.577 16.577 0 0011.08 0 20.897 20.897 0 006.949-4.293l.883 8.05-6.36 14.287-1.766-3.946 2.331-5.154c.205-.453.251-.96.133-1.441a2.233 2.233 0 00-.79-1.22l-5.477-4.27a2.281 2.281 0 00-2.818 0L45.62 68.63c-.39.309-.666.736-.784 1.215-.12.479-.074.984.128 1.435l2.32 5.142-1.766 3.936-6.394-14.266.928-7.892a20.517 20.517 0 006.87 4.136zm4.912 13.192l-2.014-4.472 2.682-2.102 2.682 2.102-2.014 4.472a2.212 2.212 0 000 1.811l3.859 8.564-.351.794a4.487 4.487 0 01-1.67 1.933 4.567 4.567 0 01-4.933 0 4.487 4.487 0 01-1.67-1.933l-.43-.817 3.837-8.54a2.215 2.215 0 00.022-1.823v.011zm48.585 29H4.583C5.84 78.412 28.87 70.71 35.524 69.044l8.703 19.453a8.86 8.86 0 003.326 3.89 9.02 9.02 0 004.947 1.431 9.02 9.02 0 004.947-1.43 8.86 8.86 0 003.326-3.892l8.703-19.452c6.575 1.733 29.673 9.67 30.941 35.484zm-67.27-67.257c-.905-3.163-.712-4.404-.599-4.773h.068c.381.035.766-.026 1.117-.178a2.26 2.26 0 00.89-.69 2.221 2.221 0 00.324-2.14c-.294-.787-.514-1.599-.656-2.426a17.278 17.278 0 01-.068-7.97 16.969 16.969 0 014.697-8.072 22.662 22.662 0 014.526-3.645 16.872 16.872 0 014.165-2.113 14.13 14.13 0 013.757-.693 15.765 15.765 0 019.484 1.979c1.761.9 3.255 2.237 4.334 3.88.166.336.419.624.732.834.314.21.678.334 1.057.361 1.005.23 1.88.835 2.444 1.688 1.347 1.8 2.67 5.657 1.313 13.74a17.704 17.704 0 01-.68 2.482 2.21 2.21 0 00.32 2.093c.225.296.52.532.859.688.339.155.712.226 1.085.204h.09c.114.347.318 1.576-.599 4.763-.996 3.51-1.788 4.56-2.037 4.818a2.27 2.27 0 00-1.16.656c-.311.33-.514.744-.583 1.189-.803 5.142-5.138 11.861-11.6 14.164-2.593.922-5.43.922-8.024 0-6.484-2.236-10.706-8.843-11.532-14.187a2.225 2.225 0 00-.583-1.188 2.27 2.27 0 00-1.16-.656c-.215-.258-.996-1.308-1.98-4.808z" fill="#255D7D"/></symbol><symbol id="message"><path d="M23.277 58.3a21.289 21.289 0 01-.8 7.78 4.66 4.66 0 006.57 5.5c4.63-2.28 10.77-6.35 14.52-12.58h3.05a29.5 29.5 0 100-59h-17.15a29.48 29.48 0 00-6.19 58.3zm6.19-53.25h17.18a24.5 24.5 0 110 49h-4.51a2.5 2.5 0 00-2.21 1.25c-2.9 5.52-8.24 9.24-12.46 11.47a26.81 26.81 0 00.54-11 2.5 2.5 0 00-2.11-2.1 24.48 24.48 0 013.57-48.62zm65.68 59.8a22.27 22.27 0 01-17 21.53 14.74 14.74 0 00.6 4.92 4.07 4.07 0 01-5.74 4.8c-3.37-1.71-7.82-4.63-10.67-9.12h-1.84a22.14 22.14 0 01-20.32-13.31 2.504 2.504 0 014.59-2 17.14 17.14 0 0015.73 10.32h3.28a2.5 2.5 0 012.21 1.31 19.59 19.59 0 007.47 7.33 20.502 20.502 0 01-.07-6.75 2.5 2.5 0 012.11-2.1 17.14 17.14 0 003.82-32.9 2.5 2.5 0 011.84-4.58 22 22 0 0113.99 20.55zm-69.85-36.43a2.5 2.5 0 013.41-.92 21.36 21.36 0 015.73 4.8 59.34 59.34 0 0112.78-12 2.504 2.504 0 112.86 4.11 54.35 54.35 0 00-13.64 13.6 2.5 2.5 0 01-2.05 1.07h-.11a2.5 2.5 0 01-2.06-1.25 16.35 16.35 0 00-6-6 2.5 2.5 0 01-.92-3.41z" fill="#255D7D"/></symbol><symbol id="workman"><path d="M89 115.64v-14.078c0-16.483-13.215-29.918-29.648-30.44-.064-.006-.119-.037-.184-.037-.039 0-.071.02-.11.022l-.031-.002c6.293-4.51 10.413-11.847 10.413-20.138v-4.094h3.566c3.75 0 6.802-3.038 6.802-6.771 0-3.734-3.052-6.772-6.802-6.772h-.198c-.89-10.894-7.903-20.187-18.17-24.058l.753-6.648a2.353 2.353 0 00-.588-1.837A2.377 2.377 0 0053.035 0H35.964c-.675 0-1.319.287-1.768.787a2.353 2.353 0 00-.588 1.837l.753 6.652C24.088 13.15 17.073 22.438 16.183 33.33h-.189c-3.75 0-6.802 3.038-6.802 6.772 0 3.733 3.051 6.77 6.802 6.77h3.566v4.095c0 8.291 4.12 15.627 10.412 20.138l-.032.002c-.038-.002-.07-.022-.11-.022-.064 0-.119.031-.183.037C13.215 71.644 0 85.078 0 101.561v14.078A2.366 2.366 0 002.37 118H86.63c1.31 0 2.371-1.057 2.371-2.36zM32.202 94.273V75.792h24.595v18.481H32.202zm2.714-80.093l.936 8.268a2.368 2.368 0 002.62 2.08 2.362 2.362 0 002.091-2.608l-1.946-17.2h11.765l-1.947 17.2a2.362 2.362 0 002.36 2.624c1.19 0 2.216-.891 2.352-2.096l.936-8.273c7.802 3.412 13.13 10.66 13.964 19.155H20.943c.836-8.494 6.167-15.739 13.973-19.15zM13.934 40.102c0-1.132.925-2.052 2.06-2.052h57.012c1.135 0 2.06.92 2.06 2.052a2.058 2.058 0 01-2.06 2.05H15.994c-1.135 0-2.06-.919-2.06-2.05zm10.368 10.865v-4.094h40.396v4.094c0 11.086-9.06 20.105-20.199 20.105-11.136 0-20.197-9.02-20.197-20.105zm-19.56 50.595c0-13.14 9.936-23.993 22.718-25.557v18.268h-4.463a2.366 2.366 0 00-2.37 2.36v16.647H4.741v-11.718zm20.626 11.718V98.993H63.63v14.287H25.368zm58.89 0H68.373V96.633a2.366 2.366 0 00-2.371-2.36h-4.463V76.005c12.782 1.564 22.72 12.418 22.72 25.557v11.718z" fill="#255D7D"/></symbol><symbol id="youtube" viewBox="0 0 37 28">
<path fill-rule="evenodd" clip-rule="evenodd" d="M36.0305 6.11556C36.0305 6.11556 35.6709 3.45744 34.5921 2.27606C33.2257 0.725488 31.6435 0.725491 30.9963 0.651654C25.8902 0.282471 18.2669 0.282471 18.2669 0.282471H18.195C18.195 0.282471 10.5718 0.282471 5.46572 0.651654C4.74655 0.725491 3.16435 0.799325 1.79793 2.27606C0.71917 3.45744 0.359585 6.11556 0.359585 6.11556C0.359585 6.11556 0 9.29054 0 12.3917V12.7609V15.3451C0 18.5201 0.359585 21.6213 0.359585 21.6213C0.359585 21.6213 0.71917 24.2794 1.79793 25.5346C3.16435 27.0852 4.9623 27.0113 5.82531 27.159C8.70199 27.4544 18.195 27.5282 18.195 27.5282C18.195 27.5282 25.8182 27.4544 30.9243 27.159C31.6435 27.0852 33.1538 27.0852 34.5202 25.5346C35.5989 24.3532 35.9585 21.6213 35.9585 21.6213C35.9585 21.6213 36.3181 18.5201 36.3181 15.3451V12.9085V12.3178C36.39 9.29054 36.0305 6.11556 36.0305 6.11556ZM24.308 13.4992L14.4554 18.9631V10.5458V7.96148L18.9142 10.4719L24.308 13.4992Z" fill="white"/>
</symbol></svg>