<svg width="122" height="64" fill="none" xmlns="http://www.w3.org/2000/svg"><path d="M96.05 63.338h-5.063V46.471h-1.945v-3.354c.74 0 1.36-.315 1.864-.947.515-.63.772-1.246.772-1.845h4.372v23.013zM97.095 59.406V44.594c0-2.985 1.987-4.478 5.963-4.478 3.9 0 5.85 1.482 5.85 4.446v14.812c0 1.327-.551 2.354-1.655 3.082-1.093.727-2.502 1.09-4.227 1.09-1.779 0-3.215-.358-4.308-1.074-1.082-.717-1.623-1.739-1.623-3.066zm6.75.241v-15.68c0-.46-.273-.69-.819-.69-.579 0-.868.23-.868.69v15.68c0 .46.289.69.868.69.546 0 .819-.23.819-.69zM109.889 59.406V44.594c0-2.985 1.988-4.478 5.963-4.478 3.901 0 5.851 1.482 5.851 4.446v14.812c0 1.327-.552 2.354-1.656 3.082-1.093.727-2.502 1.09-4.227 1.09-1.779 0-3.215-.358-4.308-1.074-1.082-.717-1.623-1.739-1.623-3.066zm6.751.241v-15.68c0-.46-.273-.69-.82-.69-.579 0-.868.23-.868.69v15.68c0 .46.289.69.868.69.547 0 .82-.23.82-.69z" fill="#FBA500"/><path d="M27.465 34.813h-6.76V15.446l-3.946 19.367h-5.221L7.015 15.446v19.367H1.096V.313h9.744l3.465 17.9 3.007-17.9h10.153v34.5zM49.647 34.813h-7.506l-1.276-9.262h-3.392l-1.275 9.262h-7.506L34.37.313h9.6l5.677 34.5zm-9.407-14.05l-1.083-10.297-1.034 10.297h2.117zM50.85 21.003h6.905v7.916c0 .786.473 1.179 1.42 1.179.914 0 1.37-.393 1.37-1.18v-4.09c0-1.25-.833-2.718-2.501-4.402-3.224-3.128-5.23-5.229-6.015-6.303-.786-1.075-1.179-2.254-1.179-3.537V6.712C50.85 2.237 53.77 0 59.607 0c5.23 0 7.844 2.037 7.844 6.111v5.967h-6.905V5.726c0-.69-.377-1.035-1.131-1.035-.882 0-1.323.666-1.323 1.997l.144 2.238c0 1.283.85 2.775 2.55 4.475 3.16 3.031 5.165 5.148 6.015 6.351.866 1.203 1.3 2.567 1.3 4.09v4.403c0 4.587-2.928 6.881-8.782 6.881-5.646 0-8.469-2.085-8.469-6.255v-7.868zM85.543 4.812h-4.234v30.001H73.73V4.812h-4.234v-4.5h16.047v4.5zM101.831 34.813h-14.82V.313h14.724v4.45h-7.146v9.311h6.448v4.187h-6.448v12.125h7.242v4.427zM121.8 34.861h-7.579c-.818-.978-1.227-3.753-1.227-8.324v-.048l.048-2.07c.048-2.87.073-4.338.073-4.402 0-1.17-.786-1.756-2.358-1.756v16.552h-7.579V.313h9.359c2.133 0 3.986.489 5.558 1.467 1.588.979 2.382 2.527 2.382 4.644v4.138c0 2.678-1.564 4.49-4.692 5.437 3.144.738 4.716 2.639 4.716 5.702l-.121 3.777c0 5.518.473 8.646 1.42 9.383zm-8.685-22.615V6.568c0-1.203-.786-1.804-2.358-1.804v9.31c1.572 0 2.358-.609 2.358-1.828zM10.248 62.726H7.877v-6.85l-1.384 6.85H4.662l-1.586-6.85v6.85H1V50.522h3.417l1.215 6.332 1.055-6.332h3.56v12.204zM18.027 62.726h-2.633l-.447-3.276h-1.19l-.447 3.276h-2.632l1.991-12.204h3.367l1.991 12.204zm-3.299-4.97l-.38-3.642-.363 3.642h.743zM24.27 54.786h-2.42v-2.417c0-.199-.122-.298-.364-.298-.253 0-.38.1-.38.298v8.468c0 .199.127.298.38.298.242 0 .363-.1.363-.298v-3.013h2.422v3.098c0 .579-.281 1.044-.844 1.396a3.566 3.566 0 01-1.907.519c-2.047 0-3.071-.732-3.071-2.196v-7.855c0-1.583 1.024-2.374 3.071-2.374 1.834 0 2.75.72 2.75 2.161v2.213zM30.397 52.114h-1.485v10.612h-2.658V52.114h-1.485v-1.592h5.628v1.592zM36.109 62.726H30.91V50.522h5.164v1.575H33.57v3.293h2.261v1.481h-2.26v4.29h2.539v1.565zM39.138 58.233v4.493h-2.59V50.522h2.792c1.108 0 1.93.142 2.464.426.54.283.81.862.81 1.736v3.387c0 .8-.22 1.367-.658 1.702-.439.33-1.378.482-2.818.46zm.886-2.392v-2.927c0-.431-.296-.647-.886-.647v4.221c.59 0 .886-.215.886-.647zM52.2 62.726H49.54v-5.855H48.8v5.855h-2.658V50.522H48.8v4.868h.742v-4.868H52.2v12.204zM59.928 62.726h-2.632l-.448-3.276h-1.19l-.447 3.276H52.58l1.991-12.204h3.367l1.991 12.204zm-3.299-4.97l-.38-3.642-.363 3.642h.743zM63.43 62.726V50.522h3.13c.748 0 1.398.173 1.95.52.55.34.826.887.826 1.642v1.694c0 .856-.517 1.46-1.552 1.812 1.09.273 1.636.86 1.636 1.762v2.366c0 .806-.261 1.41-.784 1.813-.518.397-1.136.595-1.856.595h-3.35zm3.4-7.914v-2.077c0-.425-.247-.638-.742-.638v3.361c.495 0 .742-.215.742-.646zm0 5.702v-3.09c0-.425-.247-.638-.742-.638v4.374c.495 0 .742-.215.742-.646zM75.808 54.786h-2.422v-2.417c0-.199-.12-.298-.363-.298-.253 0-.38.1-.38.298v8.468c0 .199.127.298.38.298.242 0 .363-.1.363-.298v-3.013h2.422v3.098c0 .579-.282 1.044-.844 1.396a3.566 3.566 0 01-1.907.519c-2.047 0-3.071-.732-3.071-2.196v-7.855c0-1.583 1.023-2.374 3.071-2.374 1.834 0 2.75.72 2.75 2.161v2.213zM81.587 62.726H76.39V50.522h5.164v1.575h-2.506v3.293h2.261v1.481h-2.261v4.29h2.54v1.565z" fill="#fff"/><path stroke="#FBA500" stroke-width="3" d="M.994 42.166l80.587-.339"/></svg>