<svg viewBox="0 0 2041 705" xmlns="http://www.w3.org/2000/svg"><path d="M176.6 149.7c-.3 1-7.7 41.4-16.5 89.8s-18.7 102.4-22 120c-3.2 17.6-5.7 32.3-5.4 32.7.2.5 21.7.8 47.7.8 36.7 0 47.6-.3 48.3-1.3.6-.6 7.6-37.4 15.7-81.7 8-44.3 15.1-83.3 15.8-86.8l1.2-6.2h119.8l-.6 2.7c-.5 2.5-9.6 52.3-25.5 139.3-3.3 17.8-5.7 32.8-5.5 33.2.3.5 21.9.8 48 .8H445l1-2.3c.8-1.9 6.2-31.3 36.6-198.2 4.1-22.6 7.7-41.8 8-42.8.5-1.6-7.4-1.7-156.5-1.7-148.6 0-157 .1-157.5 1.7z"/><path fill="#220f42" d="M613.5 149.1c-.2.3 14.8 15.7 33.3 34.2l33.6 33.7h46.3c25.5 0 46.3-.2 46.3-.5s2.7-15.2 6-33.2c3.3-17.9 6-32.9 6-33.4 0-.9-171-1.8-171.5-.8zm-66.5 1.4c-8.9 1.8-20.5 6.4-27.1 10.8-7.6 5.1-17.8 15.9-22.7 24.2-3.8 6.6-9.2 21-10.6 28.2l-.5 3.3h117l-3.5-6.3c-1.9-3.4-10.5-18.6-19-33.7l-15.5-27.5-5.8-.2c-3.2-.1-8.7.4-12.3 1.2z"/><path fill="#950f1f" d="M842 150.5c-24.5 4.9-42.7 19-53.1 41-3.1 6.6-7.9 21.6-7.9 24.7 0 .4 64.5.8 143.3.8h143.2l5.9-31.9c3.1-17.6 6-32.9 6.3-34l.5-2.1-115.8.1c-91.2.1-117.3.4-122.4 1.4z"/><path fill="#220f42" d="M483.3 237.8c-.7.4-4.8 20.3-9.4 44.7-9.1 48.9-10 58.4-6.5 70 5.6 18.9 20.1 32.4 40.6 38.1 5.6 1.6 10.8 1.8 39.4 1.9h33l6-9.5c23.9-37.9 30.7-49.5 30.2-51.4-.3-1.2-1.5-3.2-2.5-4.6l-2-2.5h-24c-21.2 0-24.1-.2-24.1-1.6 0-.8 3.4-20 7.5-42.5s7.5-41.5 7.5-42.2c0-1-9.8-1.2-47.2-1.2-26 0-47.8.4-48.5.8z"/><path fill="#950f1f" d="M776.5 240.2c-3.2 14.4-16.5 92.2-16.5 97 .1 26.1 17.5 47.3 44 53.5 6.9 1.7 15.8 1.8 119.5 1.8h112l6.1-33.5 6.1-33.5-94.6-.5c-94-.5-94.6-.5-94.4-2.5.2-2.3 14-78.8 14.8-82.3l.5-2.2h-97l-.5 2.2z"/><path fill="#220f42" d="M666 324.8c0 .4 1.1 2.6 2.5 5l2.4 4.3-9.3 10.2c-5.1 5.6-17.2 18.7-26.8 29.2l-17.5 19 61.5.3c33.8.1 61.6.1 61.8 0 .2-.3 12.4-66.9 12.4-68.1 0-.4-19.6-.7-43.5-.7-23.9.1-43.5.4-43.5.8z"/><path fill="#950f1f" d="M1926 527v4h21v-8h-21v4z"/><path d="M132.7 533.7c-.4.3-.7 14.3-.7 31V595h23v-44h27v44h23v-62h-35.8c-19.7 0-36.2.3-36.5.7zm84.6 0c-1 .4-1.3 7.4-1.3 30.9V595h23v-44h54.3l-.6-3.7c-1.2-7.3-7.4-12.6-15.8-13.7-5.5-.7-57.5-.6-59.6.1zm102.5.1c-6.9.9-10.5 3.3-13.5 9.2-2.1 4.1-2.3 5.7-2.3 22s.2 17.9 2.3 22c3.9 7.8 5.1 8 36.5 8 30.3 0 32.2-.3 36.3-6.1 2.3-3.2 2.4-4.3 2.7-21.4.4-20.7.1-23.3-3.5-27.5-4.9-5.9-6.6-6.2-30.8-6.6-12.1-.1-24.6.1-27.7.4zm40.2 30.7V578h-33v-27h33v13.5z"/><path fill="0" d="M394.5 533.8c-.3.3-.5 14.2-.5 30.9V595h23v-36.5l8 8.5 7.9 8.5 8-8.5 8-8.5.1 18.2V595h23v-30.4c0-23.4-.3-30.5-1.2-30.9-.7-.2-5.9-.3-11.6-.2l-10.2.1-8 8.5-7.9 8.4-8.6-8.8-8.6-8.8-10.4.2c-5.7.1-10.7.4-11 .7z"/><path fill="#f5c52a" d="M483.7 533.7c-.4.3-.7 4.4-.7 9v8.3h36.5c41 0 38.3.6 34.6-7.5-4.4-9.7-7.2-10.4-41.7-10.5-15.4 0-28.4.3-28.7.7zm97.4.3c-3.9.9-7.7 3.5-10.5 7.4-2 2.6-2.1 4.3-2.4 28.2l-.3 25.4H590v-44h32v44h23l-.2-30.8-.3-30.7-30-.2c-16.5 0-31.5.3-33.4.7zm74.9 8v9h68v-18h-68v9zm79-8.5V595c0 .6 4.3 1 11 1h11v-63h-11c-6 0-11 .2-11 .5zm49.7.1c-.4.4-.7 4.9-.7 10.1v9.3h-22v18h22v24h24v-8.8c0-11.2-1.3-15.8-5.9-20.3l-3.6-3.6 3.6-3.4c4.5-4.1 6.1-9.5 5.7-18.7l-.3-6.7-11.1-.3c-6-.1-11.3.1-11.7.4zM816 542v9h68.1l-.3-8.8-.3-8.7-33.7-.3-33.8-.2v9zm76.5-7.7c-.3.7-.4 14.7-.3 31.2l.3 30 11.3.3 11.2.3V551h55.2l-.7-3.3c-1.6-7-4.9-11-11.2-13.3-5.3-1.9-65.1-2-65.8-.1zm99.2.2c-5.1 1.8-8.3 4.9-10.3 10-1.3 3.5-1.5 7.5-1.2 22.1.3 20.1 1.2 22.9 7.8 26.9 3.3 1.9 5.1 2 31 2 25 0 27.8-.2 30.9-1.9 7.9-4.3 9.5-10 8.9-32.5-.5-19.5-2.1-23.3-11.5-26.7-5.4-1.9-50.2-1.9-55.6.1zm44.3 30V578h-33v-27h33v13.5z"/><path fill="#220f42" d="M1076.3 536c-3.6 2.2-5.8 5.8-6.8 11.3l-.7 3.7h67.2v-17h-28.2c-26.3 0-28.5.1-31.5 2zm69.7 6.5v8.5h68v-17h-68v8.5zm79 22V595h22v-44h55.2l-.7-3.3c-1-4.9-4.9-10.2-8.8-12-3-1.5-7.8-1.7-35.6-1.7H1225v30.5zm87 0V595h33.5c36.4 0 38.2-.2 42.3-5.5 5-6.3 4.1-15-2.3-21.1l-4.3-4.2 2.7-2c6.1-4.5 7.6-12.7 3.9-20.2-4-7.9-4.4-8-42.5-8H1312v30.5zm55-11v2.5h-27v17h27.7l-.5 2.5-.4 2.5H1335v-27h32v2.5zm35 11V595h23v-61h-23v30.5zm41.7-15l-13.8 15.5.3 12.1.3 12 13.5-15 13.5-14.9.3 17.9.2 17.9h23v-61h-23.6l-13.7 15.5zm56.8-14.5c-4.2 1.7-8.5 8.9-8.5 14.1 0 1.8 1.6 1.9 33.5 1.9h33.5v-17l-28.2.1c-15.6 0-29.2.4-30.3.9z"/><path fill="#950f1f" d="M1575.2 536c-3.6 2.2-6.2 7.2-6.2 12v3h66v-17h-28.2c-26.6 0-28.5.1-31.6 2zm67.8 6.5v8.5h67v-17h-67v8.5zm76 22V595h23v-44h54.3l-.6-3.7c-.8-4.5-3.2-8-7.7-11.1-3.3-2.2-3.7-2.2-36.1-2.2H1719v30.5zm97.2-28.8c-8 3.9-9.5 9.2-9 31.7.3 19.4 1.2 22.2 8 25.7 3.4 1.7 6.1 1.9 31 1.9 30.9 0 32.3-.3 36.6-7.6 2.1-3.7 2.2-4.7 2-23.5l-.3-19.6-2.8-3.6c-5-6.6-5.6-6.7-35.4-6.7-22.7 0-27.3.3-30.1 1.7zm46.8 28.8V578h-33.5v-27h33.5v13.5zm34 0V595h22v-61h-22v30.5zm41.6-15.3l-13.6 15.3v24l5.3-5.5c2.9-3 9.1-9.8 13.9-15l8.8-9.5V595h22v-61h-22.9l-13.5 15.2z"/><path fill="0" d="M244 564.5v8.5h17.8c16.5 0 18.1-.2 22.2-2.3 5.2-2.6 7.8-5.9 8.7-11l.6-3.7H244v8.5z"/><path fill="#f5c52a" d="M500 564.5v8.5h33v5h-50.1l.3 8.7.3 8.8h30c28 0 30.3-.1 34-2 2.8-1.4 4.7-3.3 6.3-6.5 1.9-3.9 2.2-5.9 2.2-17.7V556h-56v8.5zM656 576v20h68v-18h-45v-5h28v-17h-51v20zm183 0v20.1l11.3-.3 11.2-.3.3-19.8.2-19.7h-23v20zm81-11.5v8.5h17.3c9.4 0 18.8-.5 20.7-1 4.1-1.1 9.4-6.3 10.5-10 .3-1.4.9-3.3 1.1-4.3.5-1.6-1.1-1.7-24.5-1.7H920v8.5z"/><path fill="#220f42" d="M1069.2 569.2c.4 15.6 1.9 19.8 8.4 23.5 3.8 2.2 4.8 2.3 31.2 2.3h27.2v-17h-44v-22h-23.2l.4 13.2zm76.8 6.3V595h68v-17h-46v-5h29v-17h-51v19.5zm107-11v8.5h16.9c18.5 0 21.9-.7 26.9-5.3 2.7-2.6 5.2-7.8 5.2-11 0-.4-11-.7-24.5-.7H1253v8.5zm239 4.2c0 14.7 1.5 19.4 7.1 23.4 3.4 2.4 3.7 2.4 31.7 2.7l28.2.3V578h-44v-22h-23v12.7z"/><path fill="#950f1f" d="M1568.2 569.3c.5 15.3 2.2 19.9 8.8 23.6 3.6 2 5.1 2.1 30.9 2.1h27.1v-17h-44v-22h-23.3l.5 13.3zm97.8 6.2V595h22v-39h-22v19.5zm81-10.9v8.6l18.8-.4c15.4-.2 19.3-.6 21.9-2 4-2.2 7.3-6.8 8-11.3l.6-3.5H1747v8.6z"/><path fill="#f5c52a" d="M502.715 39.91c0 .409 5.926 11.138 13.181 23.91 11.649 20.641 29.224 51.909 54.565 97.277 4.496 8.175 13.999 24.933 20.947 37.297 7.05 12.364 12.773 22.888 12.773 23.501 0 .511-6.029 11.751-13.488 24.728-7.357 13.08-13.386 24.217-13.386 24.83 0 .92 14.408 24.218 27.998 45.165 3.168 4.904 5.722 9.196 5.722 9.503 0 .306 1.226 2.35 2.657 4.496l2.554 3.985-14.51 23.297a6820.066 6820.066 0 00-19.107 31.063c-4.803 7.868-45.675 73.775-66.316 107.189-6.437 10.32-11.955 19.516-12.262 20.436-.715 2.248 4.394-3.168 55.383-58.652 24.727-26.976 49.149-53.441 54.156-58.755 5.109-5.313 16.86-17.984 26.056-28.1 17.064-18.699 26.159-28.508 30.45-33.004 2.146-2.146 2.248-2.657.92-4.19-1.43-1.532-14.919-26.669-33.924-62.841-7.664-14.714-7.868-15.225-6.03-16.962 1.125-1.022 12.263-10.014 24.933-19.926 12.67-9.911 23.093-18.495 23.297-18.903.307-.92-173.708-174.935-175.65-175.548-.51-.205-.92-.102-.92.204z"/></svg>