<svg width="970" height="490" xmlns="http://www.w3.org/2000/svg"><path fill="none" d="M-1-1h972v492H-1z"/><path d="M52.6 115.7c-.3 1-7.7 41.4-16.5 89.8s-18.7 102.4-22 120c-3.2 17.6-5.7 32.3-5.4 32.7.2.5 21.7.8 47.7.8 36.7 0 47.6-.3 48.3-1.3.6-.6 7.6-37.4 15.7-81.7 8-44.3 15.1-83.3 15.8-86.8l1.2-6.2h119.8l-.6 2.7c-.5 2.5-9.6 52.3-25.5 139.3-3.3 17.8-5.7 32.8-5.5 33.2.3.5 21.9.8 48 .8H321l1-2.3c.8-1.9 6.2-31.3 36.6-198.2 4.1-22.6 7.7-41.8 8-42.8.5-1.6-7.4-1.7-156.5-1.7-148.6 0-157 .1-157.5 1.7z"/><path d="M489.5 115.1c-.2.3 14.8 15.7 33.3 34.2l33.6 33.7h46.3c25.5 0 46.3-.2 46.3-.5s2.7-15.2 6-33.2c3.3-17.9 6-32.9 6-33.4 0-.9-171-1.8-171.5-.8zm-66.5 1.4c-8.9 1.8-20.5 6.4-27.1 10.8-7.6 5.1-17.8 15.9-22.7 24.2-3.8 6.6-9.2 21-10.6 28.2l-.5 3.3h117l-3.5-6.3c-1.9-3.4-10.5-18.6-19-33.7l-15.5-27.5-5.8-.2c-3.2-.1-8.7.4-12.3 1.2z" fill="#220f42"/><path d="M718 116.5c-24.5 4.9-42.7 19-53.1 41-3.1 6.6-7.9 21.6-7.9 24.7 0 .4 64.5.8 143.3.8h143.2l5.9-31.9c3.1-17.6 6-32.9 6.3-34l.5-2.1-115.8.1c-91.2.1-117.3.4-122.4 1.4z" fill="#950f1f"/><path d="M359.3 203.8c-.7.4-4.8 20.3-9.4 44.7-9.1 48.9-10 58.4-6.5 70 5.6 18.9 20.1 32.4 40.6 38.1 5.6 1.6 10.8 1.8 39.4 1.9h33l6-9.5c23.9-37.9 30.7-49.5 30.2-51.4-.3-1.2-1.5-3.2-2.5-4.6l-2-2.5h-24c-21.2 0-24.1-.2-24.1-1.6 0-.8 3.4-20 7.5-42.5s7.5-41.5 7.5-42.2c0-1-9.8-1.2-47.2-1.2-26 0-47.8.4-48.5.8z" fill="#220f42"/><path d="M652.5 206.2c-3.2 14.4-16.5 92.2-16.5 97 .1 26.1 17.5 47.3 44 53.5 6.9 1.7 15.8 1.8 119.5 1.8h112l6.1-33.5 6.1-33.5-94.6-.5c-94-.5-94.6-.5-94.4-2.5.2-2.3 14-78.8 14.8-82.3l.5-2.2h-97l-.5 2.2z" fill="#950f1f"/><path d="M542 290.8c0 .4 1.1 2.6 2.5 5l2.4 4.3-9.3 10.2c-5.1 5.6-17.2 18.7-26.8 29.2l-17.5 19 61.5.3c33.8.1 61.6.1 61.8 0 .2-.3 12.4-66.9 12.4-68.1 0-.4-19.6-.7-43.5-.7-23.9.1-43.5.4-43.5.8z" fill="#220f42"/><path d="M378.715 5.91c0 .409 5.926 11.138 13.181 23.91 11.649 20.641 29.224 51.909 54.565 97.277 4.496 8.175 13.999 24.933 20.947 37.297 7.05 12.364 12.773 22.888 12.773 23.501 0 .511-6.029 11.751-13.488 24.728-7.357 13.08-13.386 24.217-13.386 24.83 0 .92 14.408 24.218 27.998 45.165 3.168 4.904 5.722 9.196 5.722 9.503 0 .306 1.226 2.35 2.657 4.496l2.554 3.985-14.51 23.297a6820.066 6820.066 0 00-19.107 31.063c-4.803 7.868-45.675 73.775-66.316 107.189-6.437 10.32-11.955 19.516-12.262 20.436-.715 2.248 4.394-3.168 55.383-58.652 24.727-26.976 49.149-53.441 54.156-58.755 5.109-5.313 16.86-17.984 26.056-28.1 17.064-18.699 26.159-28.508 30.45-33.004 2.146-2.146 2.248-2.657.92-4.19-1.43-1.532-14.919-26.669-33.924-62.841-7.664-14.714-7.868-15.225-6.03-16.962 1.125-1.022 12.263-10.014 24.933-19.926 12.67-9.911 23.093-18.495 23.297-18.903.307-.92-173.708-174.935-175.65-175.548-.51-.205-.92-.102-.92.204h.001z" fill="#f5c52a"/></svg>